<mxfile host="app.diagrams.net" modified="2021-03-10T10:09:13.720Z" agent="5.0 (Windows NT 10.0; Win64; x64) AppleWebKit/537.36 (KHTML, like Gecko) Chrome/88.0.4324.190 Safari/537.36" etag="sbXqP5yO2K9eUoyMEd0u" version="14.1.1" type="github">
  <diagram id="UpZCZRQp3eDainlpIZIX" name="Page-1">
    <mxGraphModel dx="2249" dy="1931" grid="1" gridSize="10" guides="1" tooltips="1" connect="1" arrows="1" fold="1" page="1" pageScale="1" pageWidth="827" pageHeight="1169" math="0" shadow="0">
      <root>
        <mxCell id="0" />
        <mxCell id="1" parent="0" />
        <mxCell id="pnqS_63PvMSXRZIcJ1EI-5" value="" style="ellipse;whiteSpace=wrap;html=1;aspect=fixed;" vertex="1" parent="1">
          <mxGeometry x="-20" y="-135" width="690" height="690" as="geometry" />
        </mxCell>
        <mxCell id="pnqS_63PvMSXRZIcJ1EI-1" value="" style="ellipse;whiteSpace=wrap;html=1;aspect=fixed;" vertex="1" parent="1">
          <mxGeometry x="10" y="-10" width="440" height="440" as="geometry" />
        </mxCell>
        <mxCell id="pnqS_63PvMSXRZIcJ1EI-2" value="use case level" style="text;html=1;strokeColor=none;fillColor=none;align=center;verticalAlign=middle;whiteSpace=wrap;rounded=0;" vertex="1" parent="1">
          <mxGeometry x="150" y="40" width="80" height="20" as="geometry" />
        </mxCell>
        <mxCell id="pnqS_63PvMSXRZIcJ1EI-3" value="Dto" style="rounded=0;whiteSpace=wrap;html=1;" vertex="1" parent="1">
          <mxGeometry x="290" y="90" width="120" height="60" as="geometry" />
        </mxCell>
        <mxCell id="pnqS_63PvMSXRZIcJ1EI-4" value="&lt;font style=&quot;font-size: 13px&quot;&gt;DtoBulider(optional, used when the&amp;nbsp;&lt;span style=&quot;font-family: &amp;#34;arial&amp;#34; , sans-serif ; text-align: left ; background-color: rgb(255 , 255 , 255)&quot;&gt;presentational&lt;/span&gt;&lt;span style=&quot;font-family: &amp;#34;arial&amp;#34; , sans-serif ; text-align: left ; background-color: rgb(255 , 255 , 255)&quot;&gt;&amp;nbsp;needs are to complex&lt;/span&gt;)&lt;/font&gt;" style="rounded=0;whiteSpace=wrap;html=1;" vertex="1" parent="1">
          <mxGeometry x="210" y="170" width="204" height="60" as="geometry" />
        </mxCell>
        <mxCell id="pnqS_63PvMSXRZIcJ1EI-10" style="edgeStyle=orthogonalEdgeStyle;rounded=0;orthogonalLoop=1;jettySize=auto;html=1;" edge="1" parent="1" source="pnqS_63PvMSXRZIcJ1EI-6" target="pnqS_63PvMSXRZIcJ1EI-7">
          <mxGeometry relative="1" as="geometry">
            <Array as="points">
              <mxPoint x="540" y="-60" />
            </Array>
          </mxGeometry>
        </mxCell>
        <mxCell id="pnqS_63PvMSXRZIcJ1EI-6" value="Controller" style="rounded=0;whiteSpace=wrap;html=1;" vertex="1" parent="1">
          <mxGeometry x="245" y="-110" width="120" height="60" as="geometry" />
        </mxCell>
        <mxCell id="pnqS_63PvMSXRZIcJ1EI-8" style="edgeStyle=orthogonalEdgeStyle;rounded=0;orthogonalLoop=1;jettySize=auto;html=1;entryX=1;entryY=0.5;entryDx=0;entryDy=0;" edge="1" parent="1" source="pnqS_63PvMSXRZIcJ1EI-7" target="pnqS_63PvMSXRZIcJ1EI-3">
          <mxGeometry relative="1" as="geometry" />
        </mxCell>
        <mxCell id="pnqS_63PvMSXRZIcJ1EI-9" style="edgeStyle=orthogonalEdgeStyle;rounded=0;orthogonalLoop=1;jettySize=auto;html=1;entryX=1;entryY=0.5;entryDx=0;entryDy=0;" edge="1" parent="1" source="pnqS_63PvMSXRZIcJ1EI-7" target="pnqS_63PvMSXRZIcJ1EI-4">
          <mxGeometry relative="1" as="geometry">
            <Array as="points">
              <mxPoint x="460" y="280" />
              <mxPoint x="460" y="200" />
            </Array>
          </mxGeometry>
        </mxCell>
        <mxCell id="pnqS_63PvMSXRZIcJ1EI-17" style="edgeStyle=orthogonalEdgeStyle;rounded=0;orthogonalLoop=1;jettySize=auto;html=1;" edge="1" parent="1" source="pnqS_63PvMSXRZIcJ1EI-7" target="pnqS_63PvMSXRZIcJ1EI-15">
          <mxGeometry relative="1" as="geometry">
            <Array as="points">
              <mxPoint x="570" y="320" />
              <mxPoint x="474" y="320" />
            </Array>
          </mxGeometry>
        </mxCell>
        <mxCell id="pnqS_63PvMSXRZIcJ1EI-18" style="edgeStyle=orthogonalEdgeStyle;rounded=0;orthogonalLoop=1;jettySize=auto;html=1;entryX=0.925;entryY=0.017;entryDx=0;entryDy=0;entryPerimeter=0;" edge="1" parent="1" source="pnqS_63PvMSXRZIcJ1EI-7" target="pnqS_63PvMSXRZIcJ1EI-16">
          <mxGeometry relative="1" as="geometry">
            <Array as="points">
              <mxPoint x="570" y="411" />
            </Array>
          </mxGeometry>
        </mxCell>
        <mxCell id="pnqS_63PvMSXRZIcJ1EI-7" value="QueryRepository" style="rounded=0;whiteSpace=wrap;html=1;" vertex="1" parent="1">
          <mxGeometry x="510" y="250" width="120" height="60" as="geometry" />
        </mxCell>
        <mxCell id="pnqS_63PvMSXRZIcJ1EI-12" value="adapter level" style="text;html=1;strokeColor=none;fillColor=none;align=center;verticalAlign=middle;whiteSpace=wrap;rounded=0;" vertex="1" parent="1">
          <mxGeometry x="120" y="-60" width="80" height="20" as="geometry" />
        </mxCell>
        <mxCell id="pnqS_63PvMSXRZIcJ1EI-13" value="" style="ellipse;whiteSpace=wrap;html=1;aspect=fixed;" vertex="1" parent="1">
          <mxGeometry x="-20" y="800" width="440" height="440" as="geometry" />
        </mxCell>
        <mxCell id="pnqS_63PvMSXRZIcJ1EI-14" value="Dto" style="rounded=0;whiteSpace=wrap;html=1;" vertex="1" parent="1">
          <mxGeometry x="265" y="970" width="120" height="60" as="geometry" />
        </mxCell>
        <mxCell id="pnqS_63PvMSXRZIcJ1EI-15" value="Data" style="rounded=0;whiteSpace=wrap;html=1;" vertex="1" parent="1">
          <mxGeometry x="414" y="330" width="120" height="60" as="geometry" />
        </mxCell>
        <mxCell id="pnqS_63PvMSXRZIcJ1EI-16" value="Mapper" style="rounded=0;whiteSpace=wrap;html=1;" vertex="1" parent="1">
          <mxGeometry x="414" y="410" width="120" height="60" as="geometry" />
        </mxCell>
      </root>
    </mxGraphModel>
  </diagram>
</mxfile>
